<svg xmlns="http://www.w3.org/2000/svg" viewBox="0 0 600 600"><defs><style>.\35 e0864f6-8ed5-4e77-955b-34492a96651c{fill:#ddba9e;}.\34 b1a5856-9440-46f9-9ca7-cb4b423c75a4{fill:#efd4b8;}.\38 cd6b407-68fa-4ec9-a162-4e90b167b928{fill:#322016;}.\35 beada4d-8808-4dc7-8782-c55d2b280b9e{fill:#f8f1e6;}.\38 d01d714-2a27-4591-852d-68ffefa3000e{fill:#4a4342;}.\32 24b40b3-6148-41f6-95c5-b0a2dc353035{fill:#fff;}.\32 a003868-0302-47b6-b073-16d999b39dbb{fill:#3a271d;}.\39 fc1e32b-ecf7-4fc9-aa0e-03c2024671f9{fill:#232323;}.\33 9260a14-8be8-4054-a913-4a4911c95301{fill:#e3425e;}.a80d0210-cb02-4a49-bda4-5cda090d1f22{fill:#f5969d;}.\32 8e2ee97-2ef2-40de-8ba2-8d0a1f0f15fe{fill:#ba946f;}.\31 335620c-4ad7-4d23-8e5d-140eff335ec1{fill:#e8e8e8;}.\34 995b0ab-2c09-42ce-b639-6e9ed82b1b96{fill:#181617;}.\33 29d819c-9ffa-4364-a8b3-6b4e16dea637{fill:#3c3839;}.\34 e907a60-df7c-4f91-b9d2-f956748f34b3{fill:#d6543b;}.\35 f10735c-b078-4006-b50b-58a794a96fa1{fill:#d3af95;}.\32 497f4bd-d860-4b52-b216-f5989a5438ef{fill:#523a2c;}.a314f22b-1205-4f32-b1db-a91d70756c1a{fill:#386b95;}.a1bfb520-8aa6-4c31-8a06-821ccfc5b4cf{fill:#785434;}.\32 2316860-3ba6-49ca-b3f6-1b38d775e3a7{fill:#a83724;}.ee0c8101-0c88-4d3d-a530-445e695cf4eb{fill:#282828;}.b79dbd37-4cd0-47f3-8d8b-08385428751a{fill:#103441;}.\35 a3d135e-36a0-4751-834b-e24385581d31{fill:#4b5059;}.e7c9eb82-cc1a-479f-a5de-c7c8fe0a72d4{fill:#2b2b2b;}.\30 1257f5f-0237-4ee4-9494-3de15a4de72a{fill:#5b412f;}.\33 a5abab3-60dc-4e8c-8db5-54f3c5f618c1{fill:#e3ba97;}.adf06e46-0adb-4b3d-8dd6-3d5c642958ac{fill:#707e68;}.\31 9f7dc53-a517-489e-9c48-47706ad34e13{fill:#252a26;}.\31 9518bcb-cfd0-4664-b37f-09289e82eca5{fill:#a1a1aa;}.\37 662ff00-8855-4f0d-b280-751bee422adc{fill:#513220;}.\34 0d186c1-4092-41b0-a62f-4cbee9b3aedb{fill:#181410;}.\38 9958023-dc1e-4ac8-8278-2c0232735f41{fill:#302c2c;}.\36 5269433-a7ac-4804-b7be-fc0b732c8a85{fill:#fbc739;}</style></defs><title>freelancers</title><g id="5651a2f2-2afd-4e41-9878-c41cdfc89855" data-name="Layer 2"><path class="5e0864f6-8ed5-4e77-955b-34492a96651c" d="M273.76,382,253,374.32c-15.55-5.12-12.21-14.07-12.21-14.07H208.55s3.35,8.95-12.21,14.07L175.57,382l49.1,5.91Z"/><path class="4b1a5856-9440-46f9-9ca7-cb4b423c75a4" d="M184.92,298.58c.21,6.1-1,11.41-4.19,11.52s-5.43-4.76-5.64-10.86,2.21-11.13,5.36-11.24S184.71,292.49,184.92,298.58Z"/><path class="4b1a5856-9440-46f9-9ca7-cb4b423c75a4" d="M265,297.36c-.21,6.1,1,11.41,4.19,11.52s5.43-4.76,5.64-10.86-2.21-11.13-5.36-11.24S265.2,291.26,265,297.36Z"/><ellipse class="4b1a5856-9440-46f9-9ca7-cb4b423c75a4" cx="224.66" cy="303.47" rx="42.82" ry="61.12"/><path class="5e0864f6-8ed5-4e77-955b-34492a96651c" d="M224.25,242.44V364.68c-24,0-42.82-27.36-42.82-61.12S200.24,242.44,224.25,242.44Z"/><path class="8cd6b407-68fa-4ec9-a162-4e90b167b928" d="M215.37,283.24l-9.58-2a12.51,12.51,0,0,0-5.18,0l-9.58,2a1.36,1.36,0,0,1-1.39-.54,1.87,1.87,0,0,1-.35-1.11h0c-.2-1.67,7.24-3,7.24-3a33.38,33.38,0,0,1,11.18-.3s9.93,1.2,9.4,3.29h0a1.87,1.87,0,0,1-.35,1.11A1.36,1.36,0,0,1,215.37,283.24Z"/><path class="8cd6b407-68fa-4ec9-a162-4e90b167b928" d="M257.7,282.85l-9.58-2a12.51,12.51,0,0,0-5.18,0l-9.58,2a1.36,1.36,0,0,1-1.39-.54,1.87,1.87,0,0,1-.35-1.11h0c-.2-1.67,7.24-3,7.24-3a33.38,33.38,0,0,1,11.18-.3s9.93,1.2,9.4,3.29h0a1.87,1.87,0,0,1-.35,1.11A1.36,1.36,0,0,1,257.7,282.85Z"/><path class="5beada4d-8808-4dc7-8782-c55d2b280b9e" d="M211.9,296.18s-4.36,5.41-9.75,5.41-9.74-5.41-9.74-5.41,4.36-5.41,9.74-5.41S211.9,296.18,211.9,296.18Z"/><circle class="8d01d714-2a27-4591-852d-68ffefa3000e" cx="202.15" cy="296.18" r="3.7"/><circle class="224b40b3-6148-41f6-95c5-b0a2dc353035" cx="203.25" cy="295.12" r="1.28"/><path class="5beada4d-8808-4dc7-8782-c55d2b280b9e" d="M236.8,295.85s4.36,5.41,9.75,5.41,9.74-5.41,9.74-5.41-4.36-5.41-9.74-5.41S236.8,295.85,236.8,295.85Z"/><path class="2a003868-0302-47b6-b073-16d999b39dbb" d="M177.64,291.66c-.74-8.65-1.45-21.84,3.17-35,2.93-8.35,6.88-18.41,15-21.83,10.12-4.24,3.09,2.66,24.2-1.51,9-1.78,17.42-6.31,32-2.15,0,0,14.35,4.39,18.61,37l0,.14a103.44,103.44,0,0,1,1.22,22.66c-.12,2.11-2.17,12.26-3.86,13.51-2.62,1.93-2.66-.38-2.9-.49-.87-.39,1.14-12.36,1-13.31-.76-5.46-4.62-22.73-13.54-27-.05,0-5.59-1.88-14.77,2.58-17.72,8.61-26,1.05-28.33.39-.15,0-2.84-1.62-3-1.69-1.74-.84-11.9-5-17,4.34a2.84,2.84,0,0,1-.18.29c-.67.95-5.19,7.43-6.84,22.2-.1.88,2,11.52,1.72,12.59,0,0-2.61,1.29-3-.38C181.18,303.51,178,296.24,177.64,291.66Z"/><path class="9fc1e32b-ecf7-4fc9-aa0e-03c2024671f9" d="M268.41,290a3.34,3.34,0,0,0-.71-1.37c-2.26-1.48-3.62-3-6.83-3-3.06,0-6.12-.11-9.18,0-7.52.23-15,.56-22.56.82-1.49.05-3,.12-4.5.14s-3-.09-4.46-.14c-7.52-.26-15-.59-22.54-.82-3.06-.09-6.11,0-9.17,0-3.21,0-4.56,1.55-6.83,3a3.34,3.34,0,0,0-.71,1.37c.19,2.68-1.1,5.32,1.92,7.33.88,1.06.88,3.17,1.18,4.53,1,4.74,4.54,7.3,9.59,8a64.88,64.88,0,0,0,16.89.46,8.12,8.12,0,0,0,5.47-3.23c1.57-2.16,2.94-4.45,4.29-6.73.76-1.28,1.27-2.66,1.9-4a2.37,2.37,0,0,1,2.47-1.43,2.43,2.43,0,0,1,2.51,1.43c.63,1.34,1.18,2.72,1.94,4,1.35,2.28,2.72,4.56,4.29,6.73a8.12,8.12,0,0,0,5.47,3.23,64.88,64.88,0,0,0,16.89-.46c5.05-.71,8.56-3.27,9.59-8,.3-1.36.29-3.48,1.18-4.53C269.51,295.35,268.22,292.71,268.41,290Zm-49.11,5.72A20,20,0,0,1,215,304.9a9.85,9.85,0,0,1-6.36,3.46c-5,.84-9.87.43-14.77-.18a7,7,0,0,1-6.23-4.85,24.7,24.7,0,0,1-.87-12.29,3.24,3.24,0,0,1,3.11-3c3.46-.32,8.24-.46,10.33-.52a59.58,59.58,0,0,1,6,.17A52.77,52.77,0,0,1,215,289.1C218.39,290.07,219.81,292.61,219.29,295.75Zm42.42,7.58a7,7,0,0,1-6.23,4.85c-4.9.62-9.82,1-14.77.18a9.85,9.85,0,0,1-6.36-3.46,20,20,0,0,1-4.32-9.15c-.52-3.14.9-5.68,4.33-6.64a52.77,52.77,0,0,1,8.79-1.38,59.58,59.58,0,0,1,6-.17c2.1.06,6.88.2,10.33.52a3.24,3.24,0,0,1,3.11,3A24.7,24.7,0,0,1,261.71,303.33Z"/><path class="2a003868-0302-47b6-b073-16d999b39dbb" d="M265,303.51c.14,1.69-1.83,10.48-4,15.39-.54,1.21-1,2.33-1.51,3.37-3,6.56-10.93,10.65-17.25,7.18-3.14-1.72-5-3.66-13.38-4.76l-4.22.05-4.22-.05c-8.41,1.1-10.24,3-13.38,4.76-6.32,3.47-14.26-.62-17.25-7.18-.47-1-1-2.16-1.51-3.37-2.19-4.9-4.16-13.7-4-15.39h-3.1a106.46,106.46,0,0,0,2.29,16.67s6,42.16,39.45,44.42c0,0,.59.07,1.63.08h.22c1,0,1.63-.08,1.63-.08,33.42-2.27,39.45-44.42,39.45-44.42a106.46,106.46,0,0,0,2.29-16.67Z"/><path class="224b40b3-6148-41f6-95c5-b0a2dc353035" d="M224.3,347.74c4.32,0,9.6-3.13,11.54-10.29h-23C214.86,344.61,220.18,347.69,224.3,347.74Z"/><path class="39260a14-8be8-4054-a913-4a4911c95301" d="M236.72,337.09a.42.42,0,0,0-.33-.16H212.31a.42.42,0,0,0-.41.53c2,7.37,7.85,11.39,12.39,11.45,4.76-.05,10.59-4,12.5-11.45A.42.42,0,0,0,236.72,337.09Zm-12.43,11c-4.11,0-9.43-3.66-11.43-10.29h23C233.89,344.47,228.61,348,224.3,348.06Z"/><path class="a80d0210-cb02-4a49-bda4-5cda090d1f22" d="M235,340H213.72a15.62,15.62,0,0,0,4.78,6h11.75A13.82,13.82,0,0,0,235,340Z"/><path class="28e2ee97-2ef2-40de-8ba2-8d0a1f0f15fe" d="M226.09,319.91a2.22,2.22,0,0,1-3.41,0c-2.39-1.46-2.75.47-2.75.47.13,1.14,2.8.68,2.8.68a2.39,2.39,0,0,0,3.29,0s2.68.46,2.8-.68C228.83,320.38,228.48,318.45,226.09,319.91Z"/><path class="1335620c-4ad7-4d23-8e5d-140eff335ec1" d="M196.63,372.42h.1l9.09,46.9.06.33,7.35,37.94,3.35,17.28h16l2.9-15,7.76-40.07,9.09-47a33,33,0,0,0-7.12-2s1.88,12.18-18,12.69c-22.38.57-22.64-12.69-22.64-12.69a45.25,45.25,0,0,0-8,1.59h.11Z"/><path class="4995b0ab-2c09-42ce-b639-6e9ed82b1b96" d="M213.23,457.58l-7.41-38.27-9.19-46.9h-.13l-.58,0c-18.6,1.19-50,16.08-53.27,19.77l.25,1.22L127,474.86h89.6Z"/><path class="329d819c-9ffa-4364-a8b3-6b4e16dea637" d="M252.31,372.79h0v0h0Z"/><path class="4995b0ab-2c09-42ce-b639-6e9ed82b1b96" d="M306.5,393.77l-.17-.87.06-.3c-3.35-3.75-35.6-19-54.08-19.81h0v0l-16.86,87h0l-2.9,15h89.82Z"/><circle class="8d01d714-2a27-4591-852d-68ffefa3000e" cx="246.54" cy="296.18" r="3.7"/><circle class="224b40b3-6148-41f6-95c5-b0a2dc353035" cx="247.64" cy="295.12" r="1.28"/><path class="5e0864f6-8ed5-4e77-955b-34492a96651c" d="M436.93,383.71l-23.17-8.55c-17.35-5.71-13.61-15.69-13.61-15.69H364.2s3.73,10-13.61,15.69l-23.17,8.56,54.75-.58Z"/><rect class="1335620c-4ad7-4d23-8e5d-140eff335ec1" x="327.42" y="383.72" width="114.38" height="87.23"/><path class="4e907a60-df7c-4f91-b9d2-f956748f34b3" d="M389,394.1c-.3.59-1.6,1-2.91,1h-8.73c-1.31,0-2.61-.44-2.91-1l-5-9.71c-1-1.89.36-3.66,3.11-3.66H390.9c2.76,0,4.09,1.77,3.11,3.66Z"/><path class="5f10735c-b078-4006-b50b-58a794a96fa1" d="M382,364.4l-26.52,21.89-23.86-9.07,34.1-6.44-2.61-5.43s2-1.37,1.21-5.36A40.34,40.34,0,0,0,382,364.4Z"/><path class="224b40b3-6148-41f6-95c5-b0a2dc353035" d="M364.45,363.06c.2,0,17.65,17.67,17.65,17.67L355.59,396l-6.09-22.51Z"/><path class="224b40b3-6148-41f6-95c5-b0a2dc353035" d="M399.9,363.06c-.2,0-17.92,17.67-17.92,17.67L408.76,396l5.53-22.54Z"/><path class="5e0864f6-8ed5-4e77-955b-34492a96651c" d="M339.22,299.1c.17,5-.85,9.36-3.43,9.45s-4.45-3.9-4.63-8.9,1.81-9.13,4.39-9.22S339,294.1,339.22,299.1Z"/><path class="5e0864f6-8ed5-4e77-955b-34492a96651c" d="M425.19,299.1c-.17,5,.85,9.36,3.43,9.45s4.45-3.9,4.63-8.9-1.81-9.13-4.39-9.22S425.37,294.1,425.19,299.1Z"/><ellipse class="4b1a5856-9440-46f9-9ca7-cb4b423c75a4" cx="382.34" cy="300.71" rx="46.12" ry="64.37"/><path class="5e0864f6-8ed5-4e77-955b-34492a96651c" d="M382.33,236.26V365c-25.45,0-46.12-28.82-46.12-64.37S356.88,236.26,382.33,236.26Z"/><path class="8cd6b407-68fa-4ec9-a162-4e90b167b928" d="M404.89,334.14c-2,5.1-3.86,9.11-3.86,9.11,1.72-11-1.72-14.14-1.72-14.14-1.32-1.42-4.28-2.47-7.36-3.23a40.78,40.78,0,0,0-19.36,0c-3.1.76-6.08,1.81-7.41,3.24,0,0-3.44,3.14-1.72,14.14,0,0-1.87-4-3.86-9.11,0,0-16.65-14.52-22.18-18.79,0,0,3.55,22.35,16.4,35.95,0,0,11.18,13.78,28.25,13.78,19.65,0,31.68-17.23,31.68-17.23,11-13.89,14-34.17,14-34.17C422.21,317.95,404.89,334.14,404.89,334.14ZM394.5,350.89a6.69,6.69,0,0,1-5.08,2.44c-4.84.06-7.18-4.32-7.18-4.32s-2.34,4.38-7.18,4.32a6.69,6.69,0,0,1-5.08-2.44c-1.83-2.19-4.06-6.6-4.1-15.17,0,0,2.52-6.43,16.6-6.43,14.5,0,16.12,6.43,16.12,6.43C398.56,344.29,396.33,348.7,394.5,350.89Z"/><path class="8cd6b407-68fa-4ec9-a162-4e90b167b928" d="M338,305.89s2.25-23.09,4.7-35.34c0,0,14.55-26.84,50.52.89,0,0,19.14,15.3,29.06,2.51,0,0,3.86,22.5,4,33.59l1,7.81c6.82-22.84,2.65-47.41,2.65-47.41-9.08-39-45.23-36.13-45.23-36.13-27.15-2.78-41.85,13.09-41.85,13.09-9.94,7-3.63,17.57-3.63,17.57-5.53.54-6,5.11-6,5.11-2.34,21.37,4.08,47.14,4.08,47.14C337.5,313.89,337.83,306.72,338,305.89Z"/><path class="224b40b3-6148-41f6-95c5-b0a2dc353035" d="M382.41,346.63c4.59-.05,10.21-4.33,12.27-10.94H370.26C372.38,342.3,378,346.58,382.41,346.63Z"/><path class="39260a14-8be8-4054-a913-4a4911c95301" d="M395.62,334.94a.45.45,0,0,0-.35-.17h-25.6a.45.45,0,0,0-.43.56c2.1,7.83,8.35,12.12,13.18,12.17,5.06-.06,11.26-4.26,13.29-12.17A.45.45,0,0,0,395.62,334.94ZM382.41,346.6c-4.37,0-10-3.89-12.15-10.94h24.42C392.62,342.78,387,346.55,382.41,346.6Z"/><path class="a80d0210-cb02-4a49-bda4-5cda090d1f22" d="M393.8,338.06H371.17a16.61,16.61,0,0,0,5.08,6.33h12.5A14.69,14.69,0,0,0,393.8,338.06Z"/><path class="2497f4bd-d860-4b52-b216-f5989a5438ef" d="M373.14,287.54l-10.05-2.12a13.13,13.13,0,0,0-5.43,0l-10.05,2.12a1.43,1.43,0,0,1-1.45-.56,2,2,0,0,1-.37-1.16h0c-.21-1.75,7.59-3.14,7.59-3.14a35,35,0,0,1,11.73-.31s10.41,1.25,9.86,3.45h0a2,2,0,0,1-.37,1.16A1.43,1.43,0,0,1,373.14,287.54Z"/><path class="2497f4bd-d860-4b52-b216-f5989a5438ef" d="M417.53,287.14,407.48,285a13.13,13.13,0,0,0-5.43,0L392,287.14a1.43,1.43,0,0,1-1.45-.56,2,2,0,0,1-.37-1.16h0c-.21-1.75,7.59-3.14,7.59-3.14A35,35,0,0,1,409.5,282s10.41,1.25,9.86,3.45h0a2,2,0,0,1-.37,1.16A1.43,1.43,0,0,1,417.53,287.14Z"/><path class="5beada4d-8808-4dc7-8782-c55d2b280b9e" d="M369.82,294s-4.24,5.26-9.48,5.26-9.47-5.26-9.47-5.26,4.24-5.26,9.47-5.26S369.82,294,369.82,294Z"/><circle class="8d01d714-2a27-4591-852d-68ffefa3000e" cx="360.34" cy="293.96" r="3.59"/><circle class="224b40b3-6148-41f6-95c5-b0a2dc353035" cx="361.41" cy="292.94" r="1.24"/><path class="5beada4d-8808-4dc7-8782-c55d2b280b9e" d="M394,293.65s4.24,5.26,9.48,5.26,9.47-5.26,9.47-5.26-4.24-5.26-9.47-5.26S394,293.65,394,293.65Z"/><circle class="8d01d714-2a27-4591-852d-68ffefa3000e" cx="403.49" cy="293.65" r="3.59"/><circle class="224b40b3-6148-41f6-95c5-b0a2dc353035" cx="404.56" cy="292.75" r="1.24"/><path class="28e2ee97-2ef2-40de-8ba2-8d0a1f0f15fe" d="M384.37,318.42a3.12,3.12,0,0,1-4.78,0c-3.36-2.05-3.86.66-3.86.66.18,1.61,3.94,1,3.94,1a3.36,3.36,0,0,0,4.63,0s3.76.65,3.94-1C388.23,319.09,387.73,316.37,384.37,318.42Z"/><polygon class="4e907a60-df7c-4f91-b9d2-f956748f34b3" points="391.44 480.81 394.07 468.84 391.17 425.91 389.01 393.9 374.42 393.9 372.26 425.91 369.63 464.94 372.84 480.81 391.44 480.81"/><path class="a314f22b-1205-4f32-b1db-a91d70756c1a" d="M369.63,464.94l-8-39.31L350.18,373c-6.83,0-12.16,2.43-14.17,3v0c-19.59,4.75-39.3,17.74-41.39,21.05s-27.2,83.8-27.2,83.8h45.85l1-2.81,8-20.34c.72,6,1.26,13.47,1.65,21.57,0,.53,0,1.06.07,1.59h48.84Z"/><path class="a314f22b-1205-4f32-b1db-a91d70756c1a" d="M470.45,397c-2.09-3.32-21.81-16.3-41.39-21.05h0c-1.49-.5-10.89-2.69-15.31-2.75l-10.2,52.43-9.48,43.21-2.62,12h49.62c0-.53,0-1.06.07-1.59.39-8.09.93-15.52,1.65-21.57l8,20.34,1,2.81h45.85S472.54,400.33,470.45,397Z"/><polygon class="5e0864f6-8ed5-4e77-955b-34492a96651c" points="143.9 430.23 125.7 430.23 130.45 438.35 151.74 459.41 178.26 431.63 143.9 430.23"/><path class="5e0864f6-8ed5-4e77-955b-34492a96651c" d="M164.93,404l-23.84,0s7.82,23-21,27.51l33.79,5.69,33.2-5.7C162,429.91,164.93,404,164.93,404Z"/><ellipse class="4b1a5856-9440-46f9-9ca7-cb4b423c75a4" cx="152.71" cy="363.77" rx="33.68" ry="43.67"/><path class="5e0864f6-8ed5-4e77-955b-34492a96651c" d="M152.48,320.48l.15,87c-18.61,0-33.84-19.17-33.84-43.29S133.87,320.47,152.48,320.48Z"/><path class="5beada4d-8808-4dc7-8782-c55d2b280b9e" d="M145.24,365.05s-3.51,4.36-7.86,4.36-7.85-4.36-7.85-4.36,3.52-4.36,7.85-4.36S145.24,365.05,145.24,365.05Z"/><circle class="8d01d714-2a27-4591-852d-68ffefa3000e" cx="137.38" cy="365.05" r="2.98"/><path class="a1bfb520-8aa6-4c31-8a06-821ccfc5b4cf" d="M138.17,369.56c2.88-.35,4.85-2.24,6.33-3.33-1.43,1.24-3.35,3.21-6.22,3.56s-5.25-1-7.57-1.71C133,368.67,135.39,369.9,138.17,369.56Z"/><path class="a1bfb520-8aa6-4c31-8a06-821ccfc5b4cf" d="M127,360.65a11.09,11.09,0,0,0,3.45,0,9.14,9.14,0,0,0,2.27-.72h0a9,9,0,0,1,3.1-1.05c4.15-.65,8.36,4,9.18,5.57a10.44,10.44,0,0,0-3.11-3,8.52,8.52,0,0,0-5.57-1.15,11.68,11.68,0,0,0-7.73,5.28,37,37,0,0,1,1.91-3.54,4.25,4.25,0,0,1-2.7-.11,6.38,6.38,0,0,1-2.29-1.56A15,15,0,0,0,127,360.65Z"/><path class="5beada4d-8808-4dc7-8782-c55d2b280b9e" d="M161.55,365.05s3.51,4.36,7.86,4.36,7.85-4.36,7.85-4.36-3.52-4.36-7.85-4.36S161.55,365.05,161.55,365.05Z"/><circle class="8d01d714-2a27-4591-852d-68ffefa3000e" cx="169.4" cy="365.05" r="2.98"/><path class="a1bfb520-8aa6-4c31-8a06-821ccfc5b4cf" d="M168.62,369.56c-2.88-.35-4.85-2.24-6.33-3.33,1.43,1.24,3.35,3.21,6.22,3.56s5.25-1,7.57-1.71C173.82,368.67,171.39,369.9,168.62,369.56Z"/><path class="a1bfb520-8aa6-4c31-8a06-821ccfc5b4cf" d="M179.78,360.65a11.09,11.09,0,0,1-3.45,0,9.14,9.14,0,0,1-2.27-.72h0a9,9,0,0,0-3.1-1.05c-4.15-.65-8.36,4-9.18,5.57a10.44,10.44,0,0,1,3.11-3,8.52,8.52,0,0,1,5.57-1.15,11.68,11.68,0,0,1,7.73,5.28,37,37,0,0,0-1.91-3.54A4.25,4.25,0,0,0,179,362a6.38,6.38,0,0,0,2.29-1.56A15,15,0,0,1,179.78,360.65Z"/><path class="224b40b3-6148-41f6-95c5-b0a2dc353035" d="M152.42,400.21c3.73,0,8.3-3.5,10-8.9H142.54C144.27,396.71,148.86,400.17,152.42,400.21Z"/><path class="39260a14-8be8-4054-a913-4a4911c95301" d="M163.17,390.56a.36.36,0,0,0-.29-.14H142.06a.36.36,0,0,0-.35.46c1.7,6.37,6.79,9.85,10.72,9.9,4.12,0,9.15-3.46,10.81-9.9A.36.36,0,0,0,163.17,390.56ZM152.42,400c-3.56,0-8.16-3.17-9.88-8.9H162.4C160.72,396.93,156.16,400,152.42,400Z"/><path class="a80d0210-cb02-4a49-bda4-5cda090d1f22" d="M161.69,393.09H143.28a13.5,13.5,0,0,0,4.13,5.15h10.16A12,12,0,0,0,161.69,393.09Z"/><path class="22316860-3ba6-49ca-b3f6-1b38d775e3a7" d="M167.55,332.52s-25,12.12-38.94,13.49c0,0-10.12,1.57-9.24,13.22s4,26,4.65,27.79c1.11,3,5.5,26.77-1.25,34.79,0,0,3.23-22-3.72-28.49,0,0-11.45-18-12.63-37.69,0,0,.1-32.9,17.82-47.78,0,0,22.13-20,53.16-3.62,0,0,16.15,6.27,23.2,30.64,0,0,4.8,10.18-6.07,34.36s-10,26.34-11,30.55c0,0-1.86,14.78,6.17,23.69,0,0-18.91-19.55-11.37-31.4s8.54-26.78,8.25-29.45C186.61,362.62,184.58,335.16,167.55,332.52Z"/><path class="ee0c8101-0c88-4d3d-a530-445e695cf4eb" d="M189.14,353.61c0,.79,0,1.59,0,2.39.06,1.14,0,2.13-1.3,2.66a1.93,1.93,0,0,0-.81,1.23c-.69,2.76-1.31,5.55-2,8.32-.15.62-.39,1.22-.55,1.84-.73,2.78-2.63,4.28-5.25,5.26a20.09,20.09,0,0,1-9.4,1.07c-4.87-.57-9-2.77-11.5-7.24a45.09,45.09,0,0,1-2.88-6.37c-.65-1.76-1.72-2.55-3.51-2.38a2.25,2.25,0,0,0-2.37,1.84,35.16,35.16,0,0,1-3.1,7.43,14.39,14.39,0,0,1-9,6.52,18.45,18.45,0,0,1-8.92,0c-3.35-.77-6.47-2.44-7.44-6.37-.69-2.77-1.55-5.49-2.3-8.23a4.21,4.21,0,0,0-1.69-2.69,1.84,1.84,0,0,1-.64-1.18c-.14-.92-.11-1.86-.19-2.78-.06-.61.2-.88.78-1,4.49-.55,9-1.27,13.47-1.63,4.76-.38,9.47.47,14.14,1.34,2,.37,4,.95,6,1.26,2.89.45,5.67-.43,8.45-1A64.05,64.05,0,0,1,172.23,352c3.68,0,7.36.33,11,.58,1.44.09,2.87.3,4.3.52A9.73,9.73,0,0,1,189.14,353.61Zm-5.29,4.9s-2.13-3.81-4.55-4.35a33,33,0,0,0-13.1-.11,29,29,0,0,0-5.44,1.54,4.85,4.85,0,0,0-3.25,4.87,15.69,15.69,0,0,0,2.12,7.5c1.68,2.87,3.54,5.56,7.28,6.22a25.74,25.74,0,0,0,9.07.36c4-.71,6.73-3,7.56-7a58.09,58.09,0,0,0,.74-6.38A11.48,11.48,0,0,0,184,359Zm-50.64-5a62.86,62.86,0,0,0-6.92,1c-3,.77-4.57,2.56-4.81,5.49a21.29,21.29,0,0,0,1.37,9.14,7.59,7.59,0,0,0,5.23,5,28.48,28.48,0,0,0,5.42,1.16,10.92,10.92,0,0,0,6.66-1.45A14.38,14.38,0,0,0,147,363.59a12.31,12.31,0,0,0,.21-3.8c-.36-2.51-2-4-4.38-4.72A40,40,0,0,0,133.21,353.5Z"/><path class="b79dbd37-4cd0-47f3-8d8b-08385428751a" d="M156.81,308.8c-.65,0-1.3,0-1.95,0h-.11c-.65,0-1.3,0-1.95,0-5.32-.08-30.75,2-37.15,37.21H118s4.58-23.15,26.83-29.14a69.26,69.26,0,0,1,9.94-.83c4.57.2,6.92,0,10.07,1.18,21.72,7.9,25.62,28.79,25.62,28.79h2.45C183.49,310.19,162.13,308.72,156.81,308.8Z"/><path class="5f10735c-b078-4006-b50b-58a794a96fa1" d="M142,408.51l28.92,16s-6.87-6.54-6-20c0,0-11.46,6.28-23.52.5A25.92,25.92,0,0,1,142,408.51Z"/><path class="5a3d135e-36a0-4751-834b-e24385581d31" d="M112.56,484s0,0,0,0l.71,12.26h79.19l.57-12.15,4.32,12.15h29.17L211,450a9.9,9.9,0,0,0-.42-1A26.36,26.36,0,0,0,186,431.48l-18.73,3.45a79.3,79.3,0,0,1-28.56,0l-19.11-3.48A26.36,26.36,0,0,0,95,449a9.94,9.94,0,0,0-.42,1L79,496.32h29.16Z"/><circle class="224b40b3-6148-41f6-95c5-b0a2dc353035" cx="138.58" cy="364.37" r="0.88"/><circle class="224b40b3-6148-41f6-95c5-b0a2dc353035" cx="170.65" cy="364.37" r="0.88"/><rect class="22316860-3ba6-49ca-b3f6-1b38d775e3a7" x="417.55" y="341.68" width="76.51" height="101.9"/><ellipse class="4b1a5856-9440-46f9-9ca7-cb4b423c75a4" cx="457.69" cy="365.19" rx="33.59" ry="43.56"/><path class="5e0864f6-8ed5-4e77-955b-34492a96651c" d="M457.46,322l.14,86.73c-18.56,0-33.75-19.11-33.75-43.18S438.9,322,457.46,322Z"/><path class="5beada4d-8808-4dc7-8782-c55d2b280b9e" d="M449.64,366.46s-3.76,4.67-8.42,4.67-8.41-4.67-8.41-4.67,3.77-4.68,8.41-4.68S449.64,366.46,449.64,366.46Z"/><circle class="e7c9eb82-cc1a-479f-a5de-c7c8fe0a72d4" cx="441.22" cy="366.46" r="3.19"/><path class="a1bfb520-8aa6-4c31-8a06-821ccfc5b4cf" d="M442.06,371.29c3.08-.37,5.2-2.4,6.79-3.57-1.53,1.33-3.59,3.44-6.66,3.81s-5.62-1-8.11-1.83C436.48,370.33,439.08,371.65,442.06,371.29Z"/><path class="5beada4d-8808-4dc7-8782-c55d2b280b9e" d="M467.11,366.46s3.76,4.67,8.42,4.67,8.41-4.67,8.41-4.67-3.77-4.68-8.41-4.68S467.11,366.46,467.11,366.46Z"/><circle class="e7c9eb82-cc1a-479f-a5de-c7c8fe0a72d4" cx="475.53" cy="366.46" r="3.19"/><path class="a1bfb520-8aa6-4c31-8a06-821ccfc5b4cf" d="M474.69,371.29c-3.08-.37-5.2-2.4-6.79-3.57,1.53,1.33,3.59,3.44,6.66,3.81s5.62-1,8.11-1.83C480.26,370.33,477.66,371.65,474.69,371.29Z"/><path class="224b40b3-6148-41f6-95c5-b0a2dc353035" d="M457.4,401.07c3.73,0,8.28-2.26,10-8.87H447.55C449.27,398,453.86,401,457.4,401.07Z"/><path class="39260a14-8be8-4054-a913-4a4911c95301" d="M468.12,391.91a.36.36,0,0,0-.29-.14H447.07a.36.36,0,0,0-.35.46c1.7,6.35,6.77,9.83,10.69,9.87,4.11,0,9.13-3.45,10.78-9.87A.36.36,0,0,0,468.12,391.91Zm-10.72,9.46c-3.55,0-8.13-3.16-9.85-8.87h19.81C465.68,398.27,461.13,401.33,457.4,401.37Z"/><path class="a80d0210-cb02-4a49-bda4-5cda090d1f22" d="M466.64,394.44H448.28a13.47,13.47,0,0,0,4.12,5.14h10.13A11.91,11.91,0,0,0,466.64,394.44Z"/><path class="22316860-3ba6-49ca-b3f6-1b38d775e3a7" d="M511.87,447.51s-8.41-23-9.17-37.89c0,0,1.2-49.8,1.4-62,0,0-.12-18.62-10-32,0,0-5.91-9.42-14.91-9,0,0-5.79-10.18-16.51-11.37a57.21,57.21,0,0,0-10.5,0,40.19,40.19,0,0,0-17.84,6.42A55,55,0,0,0,420.19,315c-9.86,13.43-9.37,32.55-9.37,32.55.2,12.25,1.4,62,1.4,62-.75,14.84-9.17,37.89-9.17,37.89l-6.9,46.88c9.49,9.2,34.62.76,34.62.76,9.82-3,12.37-6.22,12.37-6.22-5.17-18.3-11.38-66.16-11.38-66.16-1.66-20.82.13-28.25.13-28.25-6.63-7.26-8-20.05-8-20.05-1.72-23.65,5.4-32.79,5.4-32.79a75.52,75.52,0,0,0,28.15,3.9,77.28,77.28,0,0,0,28.45-4s6.82,9.25,5.1,32.9c0,0-1.36,12.79-8,20.05,0,0,1.8,7.42.13,28.25,0,0-6.2,47.86-11.38,66.16,0,0,2.73,3,12.37,6.22,0,0,25.13,8.45,34.62-.76Z"/><polygon class="5e0864f6-8ed5-4e77-955b-34492a96651c" points="448.91 431.48 430.29 432.34 425.74 444.68 454.46 465.11 481.34 454.71 487.59 432.34 448.91 431.48"/><path class="b79dbd37-4cd0-47f3-8d8b-08385428751a" d="M459.92,307.8c-.65,0-1.29,0-1.94,0h-.11c-.65,0-1.29,0-1.94,0-5.31-.08-30.67,2-37,37.11h2.29s4.56-23.09,26.76-29.06a69.07,69.07,0,0,1,9.92-.83c4.56.2,6.9,0,10,1.18,21.66,7.88,25.56,28.71,25.56,28.71h2.45C486.53,309.18,465.23,307.71,459.92,307.8Z"/><path class="5e0864f6-8ed5-4e77-955b-34492a96651c" d="M469.83,405.82a31.05,31.05,0,0,1-12.22,2.93,29.22,29.22,0,0,1-11.08-2.37s9.83,19.82-16.24,26L459,445l28.58-12.63C464.23,430.49,469.83,405.82,469.83,405.82Z"/><path class="5f10735c-b078-4006-b50b-58a794a96fa1" d="M447.84,410.32l27,17s-7.8-6.34-5-21.47c0,0-11.82,6.22-23.3.57A20,20,0,0,1,447.84,410.32Z"/><path class="01257f5f-0237-4ee4-9494-3de15a4de72a" d="M466.79,357.64a1.49,1.49,0,0,0,.67,1.57s10.55-4.28,18.15,0C485.61,359.21,483.28,353.75,466.79,357.64Z"/><path class="01257f5f-0237-4ee4-9494-3de15a4de72a" d="M448.62,357.64a1.49,1.49,0,0,1-.67,1.57s-10.55-4.28-18.15,0C429.81,359.21,432.14,353.75,448.62,357.64Z"/><path class="28e2ee97-2ef2-40de-8ba2-8d0a1f0f15fe" d="M458.93,385.88a1.94,1.94,0,0,1-3,0c-2.08-1.27-2.4.41-2.4.41.11,1,2.44.6,2.44.6a2.09,2.09,0,0,0,2.87,0s2.33.4,2.44-.6C461.32,386.29,461,384.61,458.93,385.88Z"/><circle class="224b40b3-6148-41f6-95c5-b0a2dc353035" cx="442.33" cy="365.39" r="0.79"/><circle class="224b40b3-6148-41f6-95c5-b0a2dc353035" cx="476.74" cy="365.39" r="0.79"/><path class="3a5abab3-60dc-4e8c-8db5-54f3c5f618c1" d="M521.89,463.3c0-21.26-25-23.37-25-23.37l3.68,36.83a168.29,168.29,0,0,0,2.85,23.5h18.47Z"/><path class="3a5abab3-60dc-4e8c-8db5-54f3c5f618c1" d="M417.36,476.76,421,440S396,442,396,463.3v37h18.56A168.32,168.32,0,0,0,417.36,476.76Z"/><path class="adf06e46-0adb-4b3d-8dd6-3d5c642958ac" d="M505.84,469.3l17.46-4.12L521,453.82c-1.06-5-7.35-10.27-13.25-12.17L502.17,439l-.23-.13c-.76-.42-1.85-.94-3.2-1.55-2.81-1.26-6.76-2.91-11.16-4.94-4.18,3-13,22.94-28.66,25.18-15.67-2.25-24.46-22.18-28.63-25.18-4.39,2-8.32,3.68-11.13,4.94-1.35.6-2.44,1.12-3.2,1.55l-.23.13-6,3.19c-.94.55-1.77,1.07-2.5,1.56-4.81,2.46-9.21,6.73-10.08,10.85l-2.33,11.35L412.07,470c0,2,0,4.22.07,7.38a26.43,26.43,0,0,0-3.94,14.15,27.79,27.79,0,0,0,1.36,8.66h98.78a27.78,27.78,0,0,0,1.36-8.66,26.43,26.43,0,0,0-3.94-14.15C505.79,473.84,505.82,471.53,505.84,469.3Z"/><path class="9fc1e32b-ecf7-4fc9-aa0e-03c2024671f9" d="M495.8,357.53a2.91,2.91,0,0,0-.62-1.19c-2-1.29-3.15-2.63-6-2.64s-5.34-.1-8,0c-6.55.2-13.11.49-19.66.71-1.3,0-2.64.1-3.92.12s-2.58-.08-3.88-.12c-6.55-.22-13.09-.51-19.64-.71-2.66-.08-5.32,0-8,0s-4,1.35-5.95,2.64a2.91,2.91,0,0,0-.62,1.19c.17,2.34-1,4.64,1.67,6.38.77.92.77,2.76,1,3.95.9,4.13,4,6.36,8.36,7a56.53,56.53,0,0,0,14.71.4,7.08,7.08,0,0,0,4.76-2.82c1.37-1.88,2.56-3.87,3.74-5.86.66-1.12,1.11-2.32,1.66-3.49a2.07,2.07,0,0,1,2.15-1.25,2.11,2.11,0,0,1,2.19,1.25c.55,1.17,1,2.37,1.69,3.49,1.17,2,2.37,4,3.74,5.86a7.08,7.08,0,0,0,4.76,2.82,56.53,56.53,0,0,0,14.71-.4c4.4-.62,7.46-2.85,8.36-7,.26-1.19.26-3,1-3.95C496.76,362.17,495.63,359.87,495.8,357.53Zm-42.79,5a17.39,17.39,0,0,1-3.76,8,8.59,8.59,0,0,1-5.54,3,43.59,43.59,0,0,1-12.87-.16,6.1,6.1,0,0,1-5.43-4.22,21.52,21.52,0,0,1-.76-10.71,2.82,2.82,0,0,1,2.71-2.59c3-.28,7.17-.4,9-.45a51.91,51.91,0,0,1,5.21.15,46,46,0,0,1,7.66,1.2A4.8,4.8,0,0,1,453,362.52Zm37,6.61a6.1,6.1,0,0,1-5.43,4.22,43.59,43.59,0,0,1-12.87.16,8.59,8.59,0,0,1-5.54-3,17.39,17.39,0,0,1-3.76-8,4.8,4.8,0,0,1,3.78-5.79,46,46,0,0,1,7.66-1.2,51.91,51.91,0,0,1,5.21-.15c1.83.05,6,.17,9,.45a2.82,2.82,0,0,1,2.71,2.59A21.52,21.52,0,0,1,490,369.12Z"/><path class="5e0864f6-8ed5-4e77-955b-34492a96651c" d="M355.49,449.59,332.4,443c-17.34-10.6-13.67-38.44-13.67-38.44H282.8s2.74,27.07-14.6,37.66L246,449.61l54.73-1.08Z"/><rect class="1335620c-4ad7-4d23-8e5d-140eff335ec1" x="246.33" y="439.3" width="113.02" height="86.2"/><path class="4e907a60-df7c-4f91-b9d2-f956748f34b3" d="M307.2,449.55c-.3.58-1.58,1-2.88,1h-8.62c-1.3,0-2.58-.44-2.88-1l-4.94-9.6c-1-1.87.35-3.61,3.08-3.61h18.09c2.73,0,4,1.75,3.08,3.61Z"/><path class="224b40b3-6148-41f6-95c5-b0a2dc353035" d="M282.92,418.88c.2,0,17.44,17.46,17.44,17.46l-26.19,15.07-6-22.25Z"/><path class="224b40b3-6148-41f6-95c5-b0a2dc353035" d="M318,418.88c-.2,0-17.71,17.46-17.71,17.46l26.47,15.07,5.46-22.27Z"/><polygon class="4e907a60-df7c-4f91-b9d2-f956748f34b3" points="309.59 535.23 312.19 523.41 309.33 480.99 307.19 449.36 292.77 449.36 290.64 480.99 288.04 519.55 291.22 535.23 309.59 535.23"/><path class="19f7dc53-a517-489e-9c48-47706ad34e13" d="M339.24,474.18l14.39,6.13L324,535.23h34.66c0-.52,0-1,.07-1.57.39-8,.92-15.33,1.63-21.31l7.89,20.1,1,2.78h45.3s-24.81-79.52-26.88-82.8-21.55-16.1-40.9-20.8l3,38.9Z"/><path class="19f7dc53-a517-489e-9c48-47706ad34e13" d="M262.33,474.18l-14.39,6.13,29.67,54.91H243c0-.52,0-1-.07-1.57-.39-8-.92-15.33-1.63-21.31l-7.89,20.1-1,2.78H187s24.81-79.52,26.88-82.8,21.55-16.1,40.9-20.8l-3,38.9Z"/><path class="19518bcb-cfd0-4664-b37f-09289e82eca5" d="M280.16,480.71l-11.34-52c-6.87,0-12.22,2.49-14.11,3v0l-3,38.82,10.61,3.65-14.53,6.13,28.94,54.91h14.52L288,519.55Z"/><path class="19518bcb-cfd0-4664-b37f-09289e82eca5" d="M339.24,474.18l10.5-3.65-3-38.9h0c-1.47-.5-10.77-2.66-15.13-2.72l-10.08,51.8-9.36,42.7-2.59,11.82H324l29.67-54.91Z"/><path class="5e0864f6-8ed5-4e77-955b-34492a96651c" d="M261.11,356.1c.2,5.84-1,10.93-4,11s-5.2-4.56-5.4-10.39,2.11-10.65,5.13-10.76S260.91,350.26,261.11,356.1Z"/><path class="4b1a5856-9440-46f9-9ca7-cb4b423c75a4" d="M337.75,354.93c-.2,5.84,1,10.93,4,11s5.2-4.56,5.4-10.39S345,344.91,342,344.8,338,349.09,337.75,354.93Z"/><path class="4b1a5856-9440-46f9-9ca7-cb4b423c75a4" d="M340.14,359.21c0,33.17-18.35,60.07-41,60.07s-41-26.89-41-60.07,18.35-61.45,41-61.45S340.14,326,340.14,359.21Z"/><path class="5e0864f6-8ed5-4e77-955b-34492a96651c" d="M299.52,297.77V419.28c-22.74,0-41.35-26.24-41.35-59.27C258.16,326.27,275.42,298.35,299.52,297.77Z"/><path class="7662ff00-8855-4f0d-b280-751bee422adc" d="M254.15,349.47c-.71-8.28-1.39-20.9,3-33.52,2.8-8,6.59-19,14.4-22.28,9.69-4.06,3,2.54,23.16-1.44,8.64-1.7,16.67-6,30.65-2.06,0,0,13.74,5.58,17.81,36.78l0,.14a99,99,0,0,1,1.17,21.69c-.11,2-2.07,11.74-3.7,12.93-2.51,1.85-2.54-.36-2.78-.47-.84-.38,1.09-11.83,1-12.74-.72-5.23-4.43-21.76-13-25.88,0,0-5.35-1.8-14.14,2.47-17,8.24-24.91,1-27.11.38-.15,0-2.72-1.55-2.86-1.62-1.66-.8-11.39-4.82-16.24,4.15a2.71,2.71,0,0,1-.17.28c-.64.91-5,7.11-6.54,21.25-.09.84,1.87,11,1.65,12.05,0,0-2.5,1.24-2.89-.36C257.53,360.81,254.52,353.86,254.15,349.47Z"/><path class="224b40b3-6148-41f6-95c5-b0a2dc353035" d="M298.92,404.65c4.12,0,9.15-3.53,11-9.81H288C289.93,401.12,295,404.6,298.92,404.65Z"/><path class="39260a14-8be8-4054-a913-4a4911c95301" d="M310.76,394.28a.4.4,0,0,0-.32-.16H287.5a.4.4,0,0,0-.39.51c1.88,7,7.48,10.86,11.81,10.91,4.54-.05,10.09-3.82,11.91-10.91A.4.4,0,0,0,310.76,394.28Zm-11.84,10.45c-3.92,0-9-3.49-10.89-9.81h21.89C308.07,401.3,303,404.68,298.92,404.73Z"/><path class="a80d0210-cb02-4a49-bda4-5cda090d1f22" d="M309.13,397.07H288.84a14.89,14.89,0,0,0,4.55,5.67h11.2A13.17,13.17,0,0,0,309.13,397.07Z"/><path class="7662ff00-8855-4f0d-b280-751bee422adc" d="M320.71,388.32c-3.64-4.11-19.68-4.5-19.68-4.5h-.48l0,5.31L306,389c7.26-.27,10.42,1.19,11.92,3.45a6.28,6.28,0,0,1,1,3.44c.07,6.68-4.49,12.16-4.49,12.16-2.74,3.5-5.62,4.09-7.46,4.05a5.47,5.47,0,0,1-2.29-.56,16.35,16.35,0,0,1-5.42-4.13,16,16,0,0,1-5.39,4.13,5.46,5.46,0,0,1-2.29.56c-1.84,0-4.72-.56-7.46-4.06,0,0-4.56-5.49-4.49-12.18a6.38,6.38,0,0,1,1-3.47c1.5-2.26,4.65-3.78,11.92-3.51l5.5.29,0-5.31h-.48s-16,.39-19.68,4.5c0,0-3.78,3.14-1.66,12.15,0,0,2.25,7.9,3.62,12a10.21,10.21,0,0,0,1.34,2.63,18.56,18.56,0,0,0,7.76,5.54,28.49,28.49,0,0,0,10.38,2,27.07,27.07,0,0,0,10.37-2,16.38,16.38,0,0,0,7.77-5.57,10.41,10.41,0,0,0,1.34-2.67c1.37-4.06,3.62-11.9,3.62-11.9C324.49,391.46,320.71,388.32,320.71,388.32Z"/><path class="40d186c1-4092-41b0-a62f-4cbee9b3aedb" d="M291.22,340.64l-8.56-1.8a11.17,11.17,0,0,0-4.62,0l-8.56,1.8a1.21,1.21,0,0,1-1.24-.48,1.67,1.67,0,0,1-.32-1h0c-.18-1.49,6.46-2.67,6.46-2.67a29.8,29.8,0,0,1,10-.26s8.86,1.07,8.39,2.93h0a1.67,1.67,0,0,1-.32,1A1.21,1.21,0,0,1,291.22,340.64Z"/><path class="40d186c1-4092-41b0-a62f-4cbee9b3aedb" d="M329,340.3l-8.56-1.8a11.17,11.17,0,0,0-4.62,0l-8.56,1.8a1.21,1.21,0,0,1-1.24-.48,1.67,1.67,0,0,1-.32-1h0c-.18-1.49,6.46-2.67,6.46-2.67a29.8,29.8,0,0,1,10-.26s8.86,1.07,8.39,2.93h0a1.67,1.67,0,0,1-.32,1A1.21,1.21,0,0,1,329,340.3Z"/><path class="9fc1e32b-ecf7-4fc9-aa0e-03c2024671f9" d="M341.78,347.31a3.23,3.23,0,0,0-.69-1.32c-2.19-1.43-3.5-2.91-6.6-2.93s-5.92-.11-8.87,0c-7.27.22-14.53.54-21.8.79-1.44,0-2.93.11-4.34.14s-2.86-.09-4.3-.14c-7.27-.25-14.51-.57-21.78-.79-3-.09-5.9,0-8.86,0s-4.41,1.5-6.6,2.93a3.23,3.23,0,0,0-.68,1.32c.19,2.59-1.06,5.14,1.85,7.08.85,1,.85,3.06,1.14,4.38,1,4.58,4.39,7.05,9.27,7.74a62.68,62.68,0,0,0,16.32.45,7.85,7.85,0,0,0,5.28-3.12c1.52-2.09,2.84-4.3,4.15-6.5.73-1.24,1.23-2.57,1.84-3.87a2.29,2.29,0,0,1,2.39-1.39,2.34,2.34,0,0,1,2.43,1.39c.61,1.3,1.14,2.63,1.88,3.87,1.3,2.2,2.63,4.41,4.15,6.5a7.85,7.85,0,0,0,5.28,3.12,62.68,62.68,0,0,0,16.32-.45c4.88-.69,8.27-3.16,9.27-7.74.29-1.31.28-3.36,1.14-4.38C342.85,352.45,341.6,349.9,341.78,347.31Zm-47.45,5.52a19.29,19.29,0,0,1-4.17,8.84A9.52,9.52,0,0,1,284,365a48.34,48.34,0,0,1-14.27-.18,6.76,6.76,0,0,1-6-4.68,23.86,23.86,0,0,1-.84-11.87,3.13,3.13,0,0,1,3-2.87c3.34-.31,8-.44,10-.5a57.56,57.56,0,0,1,5.78.16,51,51,0,0,1,8.49,1.33C293.46,347.34,294.83,349.8,294.33,352.83Zm41,7.33a6.76,6.76,0,0,1-6,4.68A48.34,48.34,0,0,1,315,365a9.52,9.52,0,0,1-6.15-3.34,19.29,19.29,0,0,1-4.17-8.84c-.5-3,.87-5.49,4.19-6.42a51,51,0,0,1,8.49-1.33,57.56,57.56,0,0,1,5.78-.16c2,.06,6.64.19,10,.5a3.13,3.13,0,0,1,3,2.87A23.86,23.86,0,0,1,335.32,360.16Z"/><path class="5beada4d-8808-4dc7-8782-c55d2b280b9e" d="M288,354.06s-3.89,4.83-8.7,4.83-8.69-4.83-8.69-4.83,3.89-4.83,8.69-4.83S288,354.06,288,354.06Z"/><circle class="89958023-dc1e-4ac8-8278-2c0232735f41" cx="279.34" cy="354.05" r="3.3"/><circle class="224b40b3-6148-41f6-95c5-b0a2dc353035" cx="280.31" cy="353.11" r="1.14"/><path class="5beada4d-8808-4dc7-8782-c55d2b280b9e" d="M310.27,353.77s3.89,4.83,8.7,4.83,8.69-4.83,8.69-4.83-3.89-4.83-8.69-4.83S310.27,353.77,310.27,353.77Z"/><circle class="89958023-dc1e-4ac8-8278-2c0232735f41" cx="318.97" cy="353.77" r="3.3"/><circle class="224b40b3-6148-41f6-95c5-b0a2dc353035" cx="320.03" cy="353.11" r="1.14"/><path class="28e2ee97-2ef2-40de-8ba2-8d0a1f0f15fe" d="M301.21,379.18a2.22,2.22,0,0,1-3.41,0c-2.39-1.46-2.75.47-2.75.47.13,1.14,2.8.68,2.8.68a2.39,2.39,0,0,0,3.29,0s2.68.46,2.8-.68C304,379.65,303.6,377.71,301.21,379.18Z"/><path class="224b40b3-6148-41f6-95c5-b0a2dc353035" d="M91.3,127.72h42.21a38.31,38.31,0,0,1,38.25,38.2v2.56a38.43,38.43,0,0,1-38.25,38.34H119.85l8.57,22.67L95.77,206.83H91.3A38.43,38.43,0,0,1,53,168.49v-2.56A38.31,38.31,0,0,1,91.3,127.72Z"/><path class="224b40b3-6148-41f6-95c5-b0a2dc353035" d="M508.7,150.86H466.49a38.31,38.31,0,0,0-38.25,38.2v2.56A38.43,38.43,0,0,0,466.49,230h13.66l-8.57,22.67L504.23,230h4.47A38.43,38.43,0,0,0,547,191.62v-2.56A38.31,38.31,0,0,0,508.7,150.86Z"/><path class="224b40b3-6148-41f6-95c5-b0a2dc353035" d="M343.2,134.84h36.31a33,33,0,0,1,32.9,32.86v2.2a33.06,33.06,0,0,1-32.9,33H367.76l7.37,19.5L347,202.88H343.2a33.06,33.06,0,0,1-32.9-33v-2.2A33,33,0,0,1,343.2,134.84Z"/><path class="224b40b3-6148-41f6-95c5-b0a2dc353035" d="M262.88,64.77H210.66A47.39,47.39,0,0,0,163.34,112v3.17a47.53,47.53,0,0,0,47.32,47.43h16.9l-10.6,28,40.38-28h5.53A47.53,47.53,0,0,0,310.2,115.2V112A47.39,47.39,0,0,0,262.88,64.77Z"/><circle class="65269433-a7ac-4804-b7be-fc0b732c8a85" cx="84.5" cy="166.82" r="7.93"/><circle class="65269433-a7ac-4804-b7be-fc0b732c8a85" cx="112.41" cy="166.82" r="7.93"/><circle class="65269433-a7ac-4804-b7be-fc0b732c8a85" cx="140.32" cy="166.82" r="7.93"/><circle class="65269433-a7ac-4804-b7be-fc0b732c8a85" cx="201.35" cy="113.61" r="10.06"/><circle class="65269433-a7ac-4804-b7be-fc0b732c8a85" cx="236.77" cy="113.61" r="10.06"/><circle class="65269433-a7ac-4804-b7be-fc0b732c8a85" cx="272.19" cy="113.61" r="10.06"/><circle class="65269433-a7ac-4804-b7be-fc0b732c8a85" cx="459.77" cy="189.83" r="7.9"/><circle class="65269433-a7ac-4804-b7be-fc0b732c8a85" cx="487.59" cy="189.83" r="7.9"/><circle class="65269433-a7ac-4804-b7be-fc0b732c8a85" cx="515.42" cy="189.83" r="7.9"/><circle class="65269433-a7ac-4804-b7be-fc0b732c8a85" cx="339.7" cy="168.14" r="6.15"/><circle class="65269433-a7ac-4804-b7be-fc0b732c8a85" cx="361.36" cy="168.14" r="6.15"/><circle class="65269433-a7ac-4804-b7be-fc0b732c8a85" cx="383.01" cy="168.14" r="6.15"/></g></svg>