<?xml version="1.0" encoding="UTF-8"?>
<svg width="354px" height="132px" viewBox="0 0 354 132" version="1.1" xmlns="http://www.w3.org/2000/svg" xmlns:xlink="http://www.w3.org/1999/xlink">
    <!-- Generator: Sketch 47.1 (45422) - http://www.bohemiancoding.com/sketch -->
    <title>full_title_compact_trans@svg</title>
    <desc>Created with Sketch.</desc>
    <defs></defs>
    <g id="Page-1" stroke="none" stroke-width="1" fill="none" fill-rule="evenodd">
        <g id="full_title_compact_trans">
            <g id="Group" transform="translate(56.000000, 7.000000)">
                <text id="fling" font-family="ProximaNova-Extrabld, Proxima Nova" font-size="72" font-weight="600" fill="#4A4A4A">
                    <tspan x="93" y="66">fling</tspan>
                </text>
                <text id=".work-copy" font-family="ProximaNova-Light, Proxima Nova" font-size="18" font-weight="300" fill="#4A4A4A">
                    <tspan x="148" y="101">.work</tspan>
                </text>
                <path d="M201.5,96.5 L235.5,96.5" id="Line-2-Copy-2" stroke="#4A4A4A" stroke-linecap="square"></path>
                <path d="M97.5,96.5 L131.5,96.5" id="Line-2-Copy-3" stroke="#4A4A4A" stroke-linecap="square"></path>
                <g id="Group-Copy-2" transform="translate(0.000000, 11.000000)" stroke-width="0.75">
                    <path d="M33.281872,96.8220809 C31.3472623,93.4320653 24.556547,90.5858118 19.4869217,87.9654921 C14.4172964,85.3451724 13.8073879,84.9071928 10.8017108,81.5313768 C7.79603361,78.1555607 5.8100754,73.3399573 5.82389598,68.4985049 C5.83771657,63.6570526 5.73127643,57.5591074 5.17722911,55.7780862 C2.94907796,48.6155494 2.4742663,47.2516537 0.90399851,40.2712373 C-0.666269275,33.2908209 0.302443627,26.8772524 5.82389598,19.7325041 C6.353388,19.0473424 5.92813709,18.4748316 4.54814325,18.0149715 C5.38681957,17.0899841 6.9717121,17.5867721 7.88559392,16.6220613 C8.79947574,15.6573504 7.64969886,11.1728151 8.89879147,10.2346271 C10.864726,13.3413522 12.6869182,13.8172567 14.3653682,11.6623405 C17.1996037,8.02354286 18.6485785,5.69103302 24.1179838,3.67318381 C23.1412599,4.88712227 22.9208037,6.23029263 23.4566152,7.70269489 C32.6195189,5.8363972 34.0860095,8.6810521 40.893141,9.3758572 C47.7002725,10.0706623 53.3165813,4.78260259 56.0375693,0.302520153 C58.8618603,3.86115877 59.4678813,8.92296079 57.8556325,15.4879262 C61.6642479,15.880228 64.9540724,14.1291283 67.7251058,10.2346271 C68.0584817,10.7743842 69.3585124,18.4923205 68.1073105,22.1400736 C66.8561086,25.7878267 65.68882,26.1644361 65.3972778,28.2399126 C65.0252458,30.8883927 67.2572561,33.2206209 65.3972778,40.2712373 C63.5372995,47.3218537 61.5128193,48.9793195 60.2740058,55.7780862 C59.7327277,58.7486893 60.6351387,64.0454117 60.596281,68.4985049 C60.5574233,72.9515982 59.2026607,78.3606941 56.0375693,81.5313768 C52.8724779,84.7020594 51.9762429,85.3183635 47.2957885,87.9654921 C42.6153341,90.6126208 35.2323787,93.4980718 33.281872,96.8220809 Z" id="Path-3" stroke="#FFDE17" fill="#FFDE17"></path>
                    <path d="M16.9037041,26.1978036 C16.5850362,27.772981 16.0615459,28.9360068 15.3332334,29.6868811 C14.2407647,30.8131925 11.5970778,32.1278379 9.80534886,35.928118 C8.01361987,39.7283982 9.44421215,42.9370053 8.94937717,44.5375939 C8.61948719,45.6046529 7.96850899,46.5494043 6.99644256,47.3718481 C8.71806691,49.2069919 9.80085948,50.6859788 10.2448203,51.8088087 C10.9107615,53.4930536 11.1349431,61.5746037 11.5970778,63.8221359 C12.0592126,66.069668 13.8350329,69.193975 16.9037041,69.193975 C19.9723754,69.193975 22.9643689,67.6904483 24.8065585,66.8897096 C26.648748,66.088971 30.8684426,65.3734561 33.041426,65.3880592 C35.2144093,65.4026622 39.4298157,66.1284534 41.3350845,66.8897096 C43.2403534,67.6509659 46.0216627,69.193975 48.739791,69.193975 C51.4579193,69.193975 54.8628859,66.0977519 55.4298158,63.8221359 C55.9967457,61.5465199 56.2225048,53.6819035 57.0210286,51.8088087 C57.6385547,50.3602798 58.3852862,48.8812929 59.2612231,47.3718481 C58.2504927,46.2281171 58.1688499,42.4642334 57.547945,39.5431051 C57.2780368,38.2732872 56.711321,36.5678621 55.8477975,34.4268301 C48.5180435,34.4268301 44.0136545,34.4268301 42.3346307,34.4268301 C39.8160949,34.4268301 31.8015639,33.1195681 27.0718499,31.7143541 C23.9187072,30.7775447 20.5293253,28.9386946 16.9037041,26.1978036 Z" id="Path-4" stroke="#FFFFFF" fill="#FFFFFF"></path>
                    <path d="M33.4050867,76.0747878 C34.3158053,76.0747878 35.6779621,76.0747878 36.324153,76.7315222 C36.970344,77.3882565 37.5672113,78.6456685 38.6331979,78.6456685 C39.6991845,78.6456685 42.3749752,78.1011617 43.1639124,77.0600308 C43.9528496,76.0189 44.1362621,74.3287625 43.730337,72.8001676 C43.3244118,71.2715727 39.7929137,70.4380126 38.2827475,70.0426189 C36.7725814,69.6472252 34.4088671,69.5670615 33.4050867,69.599713 C32.4013062,69.6323645 30.7694887,69.7347127 29.1863209,70.0426189 C27.603153,70.350525 23.014834,71.351274 22.6497717,72.8001676 C22.2847093,74.2490612 22.2567514,76.2682406 23.2119761,76.9160591 C24.1672008,77.5638776 26.1802909,78.6456685 27.3282016,78.6456685 C28.4761123,78.6456685 29.3454626,77.3882565 30.1112676,76.7315222 C30.8770726,76.0747878 32.494368,76.0747878 33.4050867,76.0747878 Z" id="Path-5" stroke="#FFFFFF" fill="#FFFFFF"></path>
                    <path d="M3.03023568,43.9550953 C3.00248639,50.5324682 5.26501388,56.6283962 9.81781817,62.2428796 C10.5635577,62.5242921 22.5533447,62.2428796 23.1343067,62.2428796 C24.6738458,62.2428796 28.3455969,58.9789329 29.6225421,55.2976897 C31.0705717,51.1232352 32.33071,49.782143 33.3749478,49.782143 C34.4191857,49.782143 35.6678109,51.1281156 37.1446678,55.2976897 C38.4839514,59.0788566 41.3513895,62.2428796 42.9651826,62.2428796 C43.6449406,62.2428796 56.2503518,62.4548109 56.9634475,62.2428796 C61.4189821,56.5773216 63.9013731,50.7439042 64.4106205,44.7426273 C61.1630825,43.2997058 56.3846222,42.578245 50.0752397,42.578245 C40.6111659,42.578245 37.6589618,45.8047246 33.3749478,45.7486446 C29.0909338,45.6925645 27.1157103,42.578245 17.5621032,42.578245 C11.1930319,42.578245 6.34907603,43.0371951 3.03023568,43.9550953 Z" id="Path-6" stroke="#000000" fill="#000000"></path>
                    <path d="M49.9652246,60.8817906 C52.250911,60.8817906 54.6733261,60.8817906 55.3229594,60.2439811 C58.2194235,58.1401615 60.5805397,53.5266534 61.0205866,51.467231 C61.4606336,49.4078087 61.305311,48.16184 61.0205866,47.1002071 C60.7358623,46.0385741 58.9201043,44.6241226 56.0154657,44.3643411 C52.2274003,44.1484229 48.957337,44.1484229 46.2052756,44.3643411 C43.0370575,44.9320637 38.3645112,45.9163407 37.6820628,47.7133353 C36.9996144,49.51033 37.6820628,51.0921386 38.962945,54.3715221 C40.3634281,57.9571141 42.8335332,60.1977108 43.9812612,60.4997705 C45.1289891,60.8018303 47.6795382,60.8817906 49.9652246,60.8817906 Z" id="Path-7" stroke="#FFFFFF" fill="#FFFFFF"></path>
                    <path d="M17.8775111,60.878302 C20.1631975,60.878302 22.5856126,60.878302 23.2352459,60.2404924 C26.13171,58.1366729 28.4928262,53.5231648 28.9328731,51.4637424 C29.3729201,49.40432 29.2175975,48.1583513 28.9328731,47.0967184 C28.6481488,46.0350855 26.8323909,44.620634 23.9277522,44.3608525 C20.1396868,44.1449343 16.8696235,44.1449343 14.1175621,44.3608525 C10.949344,44.9285751 6.27679766,45.9128521 5.5943493,47.7098467 C4.91190093,49.5068413 5.5943493,51.08865 6.87523152,54.3680334 C8.27571463,57.9536255 10.7458197,60.1942221 11.8935477,60.4962819 C13.0412756,60.7983417 15.5918247,60.878302 17.8775111,60.878302 Z" id="Path-7" stroke="#FFFFFF" fill="#FFFFFF" transform="translate(17.266348, 52.538608) scale(-1, 1) translate(-17.266348, -52.538608) "></path>
                </g>
            </g>
        </g>
    </g>
</svg>