<?xml version="1.0" encoding="UTF-8"?>
<svg width="125px" height="50px" viewBox="0 0 125 50" version="1.1" xmlns="http://www.w3.org/2000/svg" xmlns:xlink="http://www.w3.org/1999/xlink">
    <!-- Generator: Sketch 47 (45396) - http://www.bohemiancoding.com/sketch -->
    <title>web-title@svg</title>
    <desc>Created with Sketch.</desc>
    <defs></defs>
    <g id="Page-1" stroke="none" stroke-width="1" fill="none" fill-rule="evenodd">
        <g id="web-title">
            <text id="fling" font-family="ProximaNova-Extrabld, Proxima Nova" font-size="36" font-weight="600" fill="#4A4A4A">
                <tspan x="41" y="36">fling</tspan>
            </text>
            <g id="Group-Copy-3" transform="translate(9.000000, 6.000000)" stroke-width="0.5">
                <path d="M12.5409953,36.9321339 C11.8120119,35.6390352 9.25319163,34.5533509 7.34289804,33.5538475 C5.43260445,32.5543441 5.20278385,32.3872797 4.07020985,31.0995973 C2.93763585,29.8119149 2.18930377,27.9750353 2.19451153,26.1282957 C2.19971929,24.2815561 2.15961141,21.9555358 1.95083995,21.2761772 C1.11124677,18.5440755 0.932332227,18.0238267 0.34063712,15.3611936 C-0.251057988,12.6985606 0.113964265,10.2521478 2.19451153,7.52683145 C2.39403026,7.26548114 2.23379079,7.04710071 1.71379311,6.87169016 C2.02981607,6.5188599 2.62702195,6.70835638 2.97138322,6.34037389 C3.31574448,5.97239141 2.88249522,4.26179543 3.3531678,3.90392991 C4.09395471,5.0889694 4.78057787,5.27049997 5.41303729,4.44852163 C6.48101007,3.06052666 7.02700061,2.17080641 9.08793593,1.40111135 C8.71989504,1.86416004 8.63682458,2.37650338 8.83872457,2.93814135 C12.2914129,2.2262546 12.8440036,3.31132915 15.4090096,3.5763579 C17.9740157,3.84138665 20.090306,1.82429171 21.1156058,0.115394285 C22.1798314,1.47281314 22.4081872,3.4036036 21.8006731,5.90776567 C23.2358036,6.05740655 24.4754476,5.3894613 25.5196051,3.90392991 C25.645225,4.10981665 26.1350916,7.05377175 25.6636242,8.44518272 C25.1921569,9.8365937 24.752309,9.98024884 24.6424525,10.7719254 C24.5022665,11.7821704 25.3433139,12.6717832 24.6424525,15.3611936 C23.9415911,18.050604 23.1787435,18.6828332 22.7119442,21.2761772 C22.5079843,22.4092939 22.8480233,24.4296931 22.8333812,26.1282957 C22.8187392,27.8268983 22.308249,29.8901617 21.1156058,31.0995973 C19.9229627,32.309033 19.585251,32.544118 17.8216015,33.5538475 C16.057952,34.563577 13.2759688,35.6642129 12.5409953,36.9321339 Z" id="Path-3" stroke="#FFDE17" fill="#FFDE17"></path>
                <path d="M6.36951171,9.99297664 C6.24943392,10.5938175 6.05217673,11.0374459 5.77774013,11.3238618 C5.36608524,11.7534858 4.36991339,12.2549485 3.69476914,13.7045399 C3.01962488,15.1541313 3.55868864,16.378033 3.37222908,16.9885667 C3.24792271,17.3955893 3.00262657,17.7559583 2.63634067,18.069674 C3.28506869,18.7696773 3.69307749,19.333827 3.86036706,19.7621229 C4.11130143,20.4045668 4.19577566,23.48722 4.36991339,24.344526 C4.54405113,25.2018321 5.2132008,26.3935781 6.36951171,26.3935781 C7.52582261,26.3935781 8.65324046,25.8200679 9.34739884,25.5146315 C10.0415572,25.2091951 11.6315871,24.9362668 12.4503924,24.941837 C13.2691977,24.9474072 14.8576117,25.2242554 15.5755391,25.5146315 C16.2934665,25.8050076 17.3414961,26.3935781 18.3657183,26.3935781 C19.3899406,26.3935781 20.6729715,25.2125445 20.8865972,24.344526 C21.100223,23.4765076 21.1852917,20.4766024 21.4861847,19.7621229 C21.7188757,19.2095912 22.0002528,18.6454416 22.330316,18.069674 C21.949461,17.6334055 21.9186971,16.1976973 21.6847329,15.0834525 C21.5830284,14.5990889 21.3694833,13.948566 21.0440976,13.1318837 C18.2821613,13.1318837 16.5848553,13.1318837 15.9521797,13.1318837 C15.0031662,13.1318837 11.983198,12.6332373 10.2009869,12.0972278 C9.01284621,11.7398882 7.7356878,11.0384711 6.36951171,9.99297664 Z" id="Path-4" stroke="#FFFFFF" fill="#FFFFFF"></path>
                <path d="M12.587424,29.018218 C12.9305933,29.018218 13.4438698,29.018218 13.687362,29.2687249 C13.9308543,29.5192319 14.1557608,29.9988632 14.5574369,29.9988632 C14.959113,29.9988632 15.9673819,29.7911648 16.2646626,29.3940324 C16.5619433,28.9969 16.6310553,28.3522084 16.478098,27.7691361 C16.3251407,27.1860638 14.9944312,26.8681079 14.4253831,26.7172876 C13.856335,26.5664673 12.9656601,26.5358895 12.587424,26.5483441 C12.2091878,26.5607988 11.5943001,26.5998389 10.9977441,26.7172876 C10.4011881,26.8347363 8.6722563,27.2164653 8.53469656,27.7691361 C8.39713683,28.3218069 8.38660199,29.0920093 8.74654172,29.3391153 C9.10648146,29.5862213 9.86503716,29.9988632 10.2975832,29.9988632 C10.7301293,29.9988632 11.0577105,29.5192319 11.3462747,29.2687249 C11.634839,29.018218 12.2442546,29.018218 12.587424,29.018218 Z" id="Path-5" stroke="#FFFFFF" fill="#FFFFFF"></path>
                <path d="M1.14182794,16.7663766 C1.13137168,19.2752714 1.98391827,21.6005223 3.69946772,23.7421293 C3.98047101,23.8494722 8.49836177,23.7421293 8.71727497,23.7421293 C9.29739117,23.7421293 10.6809496,22.4971188 11.1621173,21.0929332 C11.7077517,19.5006155 12.1825864,18.9890649 12.5760673,18.9890649 C12.9695482,18.9890649 13.4400447,19.5024771 13.9965415,21.0929332 C14.5011991,22.535234 15.581683,23.7421293 16.1897789,23.7421293 C16.4459197,23.7421293 21.1957847,23.8229691 21.4644875,23.7421293 C23.1433845,21.5810402 24.0787783,19.3559222 24.2706686,17.0667754 C23.0469586,16.5163826 21.2463794,16.2411862 18.8689309,16.2411862 C15.3027582,16.2411862 14.1903334,17.4719053 12.5760673,17.4505139 C10.9618011,17.4291226 10.217514,16.2411862 6.61760412,16.2411862 C4.21766419,16.2411862 2.39240546,16.4162497 1.14182794,16.7663766 Z" id="Path-6" stroke="#000000" fill="#000000"></path>
                <path d="M18.8274759,23.2229511 C19.6887491,23.2229511 20.6015432,23.2229511 20.8463325,22.9796629 C21.9377538,22.177175 22.8274497,20.4173833 22.9932645,19.6318304 C23.1590793,18.8462775 23.100552,18.3710111 22.9932645,17.9660584 C22.8859771,17.5611056 22.2017784,17.0215726 21.1072769,16.9224806 C19.67989,16.8401201 18.4476922,16.8401201 17.4106836,16.9224806 C16.2168622,17.1390346 14.4561926,17.5144805 14.1990382,18.199932 C13.9418837,18.8853836 14.1990382,19.4887539 14.6816894,20.7396527 C15.2094077,22.1073528 16.1401719,22.9620134 16.5726491,23.0772321 C17.0051263,23.1924507 17.9662028,23.2229511 18.8274759,23.2229511 Z" id="Path-7" stroke="#FFFFFF" fill="#FFFFFF"></path>
                <path d="M6.73645347,23.2216203 C7.59772661,23.2216203 8.51052071,23.2216203 8.75531004,22.9783322 C9.84673132,22.1758443 10.7364273,20.4160526 10.902242,19.6304997 C11.0680568,18.8449468 11.0095295,18.3696804 10.902242,17.9647277 C10.7949546,17.5597749 10.110756,17.0202418 9.01625445,16.9211499 C7.5888675,16.8387894 6.35666971,16.8387894 5.31966108,16.9211499 C4.12583976,17.1377039 2.36517013,17.5131498 2.10801568,18.1986013 C1.85086122,18.8840529 2.10801568,19.4874232 2.59066695,20.738322 C3.11838522,22.1060221 4.04914944,22.9606827 4.48162665,23.0759013 C4.91410386,23.19112 5.87518033,23.2216203 6.73645347,23.2216203 Z" id="Path-7" stroke="#FFFFFF" fill="#FFFFFF" transform="translate(6.506160, 20.040500) scale(-1, 1) translate(-6.506160, -20.040500) "></path>
            </g>
        </g>
    </g>
</svg>