<?xml version="1.0" standalone="no"?>
<!DOCTYPE svg PUBLIC "-//W3C//DTD SVG 20010904//EN"
 "http://www.w3.org/TR/2001/REC-SVG-20010904/DTD/svg10.dtd">
<svg version="1.0" xmlns="http://www.w3.org/2000/svg"
 width="260.000000pt" height="260.000000pt" viewBox="0 0 260.000000 260.000000"
 preserveAspectRatio="xMidYMid meet">
<metadata>
Created by potrace 1.11, written by Peter Selinger 2001-2013
</metadata>
<g transform="translate(0.000000,260.000000) scale(0.100000,-0.100000)"
fill="#000000" stroke="none">
<path d="M555 1449 c-99 -14 -102 -18 -98 -86 6 -76 37 -191 69 -256 43 -88
107 -176 129 -179 11 -2 100 -2 197 0 l177 3 53 48 c52 48 68 74 122 196 15
34 36 66 47 73 39 25 58 5 119 -122 42 -89 70 -133 99 -159 l41 -37 204 0 204
0 45 67 c81 124 133 250 144 354 l6 57 -49 16 c-88 28 -192 38 -358 34 -147
-4 -170 -8 -261 -37 -154 -50 -174 -50 -307 -5 l-113 38 -205 2 c-113 1 -232
-2 -265 -7z m495 -57 c88 -29 110 -50 110 -108 0 -79 -64 -217 -129 -279 l-32
-30 -156 -3 -156 -3 -48 51 c-27 29 -64 83 -84 122 -30 60 -35 81 -35 138 0
59 3 70 26 94 41 40 74 45 264 42 148 -2 185 -6 240 -24z m881 18 c20 -6 48
-21 63 -35 23 -21 26 -31 26 -93 0 -59 -5 -80 -35 -140 -20 -39 -57 -93 -84
-122 l-48 -51 -156 3 -156 3 -32 30 c-65 62 -129 200 -129 279 0 59 23 81 115
107 38 12 75 22 80 24 25 8 324 4 356 -5z"/>
</g>
</svg>
